<?xml version="1.0" encoding="UTF-8"?>
<svg width="256" height="256" viewBox="0 0 256 256" fill="none" xmlns="http://www.w3.org/2000/svg">
  <rect width="256" height="256" rx="64" fill="url(#gradient)" />
  <path d="M128 56C97.072 56 72 81.072 72 112C72 148 128 200 128 200C128 200 184 148 184 112C184 81.072 158.928 56 128 56ZM128 136C115.144 136 104.8 125.656 104.8 112.8C104.8 99.944 115.144 89.6 128 89.6C140.856 89.6 151.2 99.944 151.2 112.8C151.2 125.656 140.856 136 128 136Z" fill="white"/>
  <defs>
    <linearGradient id="gradient" x1="0" y1="0" x2="256" y2="256" gradientUnits="userSpaceOnUse">
      <stop offset="0%" stop-color="#0A84FF"/>
      <stop offset="100%" stop-color="#0070E0"/>
    </linearGradient>
  </defs>
</svg>